<?xml version="1.0" encoding="utf-8"?>
<!-- Generator: Adobe Illustrator 21.1.0, SVG Export Plug-In . SVG Version: 6.00 Build 0)  -->
<svg version="1.1" id="Layer_1" xmlns="http://www.w3.org/2000/svg" xmlns:xlink="http://www.w3.org/1999/xlink" x="0px" y="0px"
	 viewBox="0 0 20 20" style="enable-background:new 0 0 20 20;" xml:space="preserve">
<style type="text/css">
	.st0{fill:#00A8FF;}
</style>
<g>
	<path class="st0" d="M10,15c-0.1,0-0.3,0-0.4-0.1c-0.1-0.1-0.1-0.2-0.1-0.4c0-0.1,0-0.3,0.1-0.4C9.7,14,9.9,14,10,14
		c0.1,0,0.3,0,0.4,0.1c0.1,0.1,0.1,0.2,0.1,0.4c0,0.1,0,0.3-0.1,0.4C10.3,15,10.1,15,10,15 M9.5,11V5.5h1V11H9.5 M10,16
		c0.4,0,0.8-0.1,1-0.4c0.3-0.3,0.5-0.7,0.5-1.1c0-0.4-0.2-0.8-0.5-1.1c-0.3-0.3-0.6-0.4-1-0.4c-0.4,0-0.8,0.1-1.1,0.4
		c-0.3,0.3-0.4,0.7-0.4,1.1c0,0.4,0.2,0.8,0.5,1.1C9.2,15.9,9.6,16,10,16L10,16z M9.5,12h1c0.6,0,1-0.4,1-1V5.5c0-0.6-0.4-1-1-1h-1
		c-0.6,0-1,0.4-1,1V11C8.5,11.6,8.9,12,9.5,12L9.5,12z"/>
	<path class="st0" d="M10,19c-5,0-9-4-9-9c0-5,4-9,9-9s9,4,9,9C19,15,15,19,10,19 M10,20c5.5,0,10-4.5,10-10S15.5,0,10,0S0,4.5,0,10
		S4.5,20,10,20L10,20z"/>
</g>
</svg>
