<?xml version="1.0" encoding="utf-8"?>
<!-- Generator: Adobe Illustrator 21.1.0, SVG Export Plug-In . SVG Version: 6.00 Build 0)  -->
<svg version="1.1" id="Layer_1" xmlns="http://www.w3.org/2000/svg" xmlns:xlink="http://www.w3.org/1999/xlink" x="0px" y="0px"
	 viewBox="0 0 301.6 52.7" style="enable-background:new 0 0 301.6 52.7;" xml:space="preserve">
<style type="text/css">
	.st0{fill:#A7A9AC;}
	.st1{fill:#00427A;}
</style>
<g>
	<path class="st0" d="M101.5,16.9C95.9,0.9,79.9,0,78.3,0c-7.1-0.1-15,2.3-21,8.2c-2.4,2.2-4.1,4.7-6,7.4v0v0
		c-1.8-2.7-3.5-5.2-5.9-7.4c-6-5.9-13.9-8.3-21-8.2C22.7,0,6.8,0.9,1.2,16.9c-2,5.7-1.5,13.2,1.4,18.6C5.6,41.8,12.6,47,20,46.4
		c5.4-0.1,11.3-3.6,13.4-9.1c1.8-4.9,1.3-10.2-2.9-14.4c0.1,1.1,0.2,2.6-0.9,3.9c-1.7,2.3-4.4,2.9-7.1,1.9c-2.4-1.1-3.3-2.9-3.1-5.2
		c0.2-2,1.8-3.5,3.4-4.3c3.2-1.4,6.2-0.7,9.2,2.1c4.8,5.3,5.3,13.4,7.6,19.6c1.6,5.1,4.2,9.5,9.7,10.7c0.7,0.2,1.4,0.2,2.1,0.2l0,0
		l0,0l0,0l0,0c0.7,0,1.4-0.1,2.1-0.2c5.6-1.3,8.1-5.7,9.7-10.7c2.3-6.1,2.8-14.2,7.6-19.6c2.9-2.8,5.9-3.5,9.1-2.1
		c1.7,0.7,3.2,2.3,3.4,4.3c0.2,2.3-0.7,4.1-3.1,5.2c-2.8,1-5.4,0.4-7.1-1.9c-1.1-1.4-1-2.9-0.9-3.9c-4.2,4.2-4.7,9.5-2.9,14.4
		c2.2,5.5,8,8.9,13.4,9.1c7.4,0.5,14.4-4.6,17.4-10.9C103,30.1,103.5,22.7,101.5,16.9z M90.2,36c-3.4,3-7.9,3.8-11.6,2.2
		c-2.2-1-3.8-3-4.3-5c3.1,3.1,8.6,4.6,13.7-0.7c0,0,4.8-4.4,2.1-12.7c-1.3-4.1-6.4-7.5-10.6-8c-6.2-1-12.2,1.1-16.2,6.8
		c-4.8,7.4-5.4,15.7-8.9,24c-0.6,1.4-1.8,2-3.1,1.9l0,0l0,0l0,0l0,0c-1.2,0.1-2.5-0.5-3.1-1.9c-3.5-8.3-4.1-16.6-8.9-24
		c-4.1-5.7-10-7.9-16.2-6.8c-4.2,0.4-9.2,3.8-10.6,8c-2.7,8.3,2.1,12.7,2.1,12.7c5.1,5.4,10.6,3.8,13.7,0.7c-0.5,2-2.1,3.9-4.3,5
		c-3.7,1.6-8.2,0.8-11.6-2.2c-5-5-5.7-11.3-3.8-17.2C11.1,11.7,18.3,8.2,24,7.7c6.8-0.6,16.1,3.6,19.9,10.7c0.9,1.6,2.7,5.9,2.7,5.9
		h4.7h4.8c0,0,1.8-4.2,2.7-5.9c3.7-7.1,13.1-11.3,19.9-10.7c5.7,0.5,12.9,4,15.3,11.1C96,24.7,95.2,31.1,90.2,36z"/>
	<g>
		<rect x="293" y="1.2" class="st1" width="8.6" height="7"/>
		<path class="st1" d="M123,25.9v18.9h-9.7V25.9l-8.5-24.7h10.3l3.1,12.1l3.1-12.1h10.3L123,25.9z"/>
		<path class="st1" d="M142.2,44.8l-0.4-1.6c-1.5,1.6-3.1,2.5-6.5,2.5c-3.6,0.1-6.1-3.2-6.1-7.2l0.1-5.6c0.2-9.1,12.6-6.4,12.6-13.2
			c0-1.4-0.1-2.6-1.7-2.6c-1.6,0-2,1.2-2,2.6v2.8h-8.8v-2.8c0-5.9,5.1-8.7,10.8-8.7c7.3,0,10.7,4.1,10.7,8.6v25.2H142.2z
			 M141.7,28.2c-2.1,1.3-3.6,2-3.6,4.8v4c0,1.9,0.5,2.7,1.8,2.7c1.3,0,1.8-0.8,1.8-2.7V28.2z"/>
		<path class="st1" d="M176.7,35.9c0,5.2-0.9,9.6-6.7,9.6c-3.3,0-5-1-6.4-3v10.2H155v-41h8.6l-0.1,3.4c1.7-3.1,3.5-4,6.9-4
			c4.7,0,6.3,4.5,6.3,8.8V35.9L176.7,35.9z M167.5,20.4c0-1.5-0.8-2.3-1.9-2.3c-1.2,0-2,0.9-2,2.5v15.6c0,1.5,0.8,2.3,1.9,2.3
			c1.2,0,2-0.8,2-2.4V20.4z"/>
		<path class="st1" d="M180.9,44.8v-33h8.6v33H180.9z"/>
		<path class="st1" d="M210.6,44.7l-5.6-15.3l-1.3,2.4v12.9h-9.7V1.2h9.7v13.5l6.2-13.5h9.7l-8.9,18.3l9.7,25.2H210.6z"/>
		<path class="st1" d="M239.1,20.7c-2.2-0.8-7.9-0.9-7.9,4.4v19.6h-8.6v-33h8l-0.1,3.5c3-4.3,6.2-4.3,8.5-4.3L239.1,20.7L239.1,20.7
			z"/>
		<path class="st1" d="M263.3,36.5c0,6.6-4.6,9.1-10.8,9.1c-5.7,0-10.8-2.8-10.8-9.3V20.9c0-6.3,3.8-9.8,10.8-9.8
			c5.7,0,10.8,2.3,10.8,9.9v8.7h-12.6v7.9c0,1.3,0.6,2.1,1.9,2.1c1.3,0,1.9-0.8,1.9-2.1v-4.9h8.9V36.5L263.3,36.5z M254.3,19.1
			c0-1.3-0.6-2.1-1.8-2.1c-1.3,0-1.9,0.7-1.9,2.1v4.5h3.7L254.3,19.1z"/>
		<path class="st1" d="M280.3,44.8v-3.4c-0.8,2.9-3.5,4-6.7,4c-5.3,0-6.4-4.5-6.4-8.7v-16c0-5.2,1.3-9.8,6.6-9.8
			c3.1,0,5.5,1.3,6.5,3V1.2h8.6v43.6H280.3z M280.3,20.2c0-1.5-0.8-2.3-2-2.2c-1.2,0-2,0.8-2,2.3l0.1,15.7c0,1.5,0.8,2.3,1.9,2.3
			c1.2,0,2-0.9,2-2.4V20.2z"/>
		<path class="st1" d="M293,44.8v-33h8.6v33H293z"/>
	</g>
</g>
</svg>
