<svg width="108" height="16" viewBox="0 0 108 16" fill="none" xmlns="http://www.w3.org/2000/svg">
<path d="M4.56615 4.91545H5.52916C6.01701 4.91545 6.25178 5.10811 6.16534 5.59063L6.05988 6.17522C6.41843 5.45597 7.19659 4.86279 7.99542 4.86279C8.10018 4.86279 8.20094 4.88321 8.20094 4.88321L7.88914 6.62561C7.88914 6.62561 7.7495 6.59348 7.53141 6.59348C7.10628 6.59348 6.38754 6.72676 5.98695 7.51642C5.891 7.71059 5.81795 7.94744 5.76722 8.23254L5.41818 10.1903H3.62451L4.56615 4.91545Z" fill="#323E48"/>
<path d="M0.762427 11.3601H0.597188C0.584622 11.3601 0.575462 11.3668 0.571704 11.3817L0.561839 11.4245H0.501709L0.517681 11.3558C0.526137 11.3155 0.542109 11.3037 0.583095 11.3037H1.03254C1.07306 11.3037 1.08386 11.3154 1.07447 11.3558L1.05885 11.4245H0.997074L1.00753 11.3817C1.01093 11.3668 1.00529 11.3601 0.991202 11.3601H0.827842L0.693725 11.9586H0.62737L0.762427 11.3601Z" fill="#323E48"/>
<path d="M1.07432 11.5639C1.07843 11.5511 1.07115 11.5436 1.0587 11.5436H1.01818L1.03145 11.4899H1.0984C1.1388 11.4899 1.15183 11.5066 1.14408 11.5436L1.09335 11.7717C1.07561 11.8447 1.07432 11.9102 1.16569 11.9102C1.27244 11.9102 1.36123 11.8163 1.38413 11.7137L1.43451 11.4899H1.4984L1.4095 11.8831C1.40762 11.8961 1.41302 11.9034 1.42606 11.9034H1.46587L1.45365 11.9586H1.38859C1.3489 11.9586 1.33516 11.9413 1.34255 11.9065L1.34749 11.8849C1.3516 11.8657 1.35594 11.8508 1.35594 11.8508H1.35442C1.32517 11.896 1.24743 11.9696 1.14396 11.9696C1.03134 11.9696 0.99681 11.9102 1.02441 11.7883L1.07432 11.5639ZM1.23357 11.3037H1.289L1.2708 11.3835H1.21537L1.23357 11.3037ZM1.3752 11.3037H1.43157L1.41243 11.3835H1.357L1.3752 11.3037Z" fill="#323E48"/>
<path d="M1.64096 11.5635C1.64508 11.5507 1.63909 11.5432 1.62499 11.5432H1.58624L1.5981 11.4894H1.6641C1.70356 11.4894 1.71824 11.5055 1.70979 11.5412L1.70297 11.5742C1.69828 11.5939 1.69334 11.6099 1.69334 11.6099H1.69452C1.73351 11.5389 1.79845 11.4844 1.87256 11.4844C1.88583 11.4844 1.89839 11.4875 1.89839 11.4875L1.88395 11.5493C1.88395 11.5493 1.87256 11.5481 1.8607 11.5481C1.79411 11.5481 1.73175 11.6 1.69557 11.668C1.67925 11.6988 1.66892 11.7303 1.66199 11.7601L1.61818 11.958H1.55359L1.64096 11.5635Z" fill="#323E48"/>
<path d="M2.00723 11.3786C2.01005 11.365 2.00488 11.3576 1.99103 11.3576H1.95203L1.96354 11.3037H2.03166C2.07159 11.3037 2.08568 11.3174 2.07676 11.357L2.00664 11.6679H2.0555C2.0737 11.6679 2.09766 11.6624 2.11457 11.6457L2.27183 11.4899H2.35028L2.1747 11.6612C2.1444 11.6902 2.13184 11.6952 2.13184 11.6952V11.6959C2.13184 11.6959 2.14382 11.7032 2.15286 11.731L2.20348 11.8832C2.20946 11.8979 2.2171 11.9035 2.24258 11.9035H2.26889L2.25632 11.9587H2.21134C2.1646 11.9587 2.15321 11.9506 2.14053 11.9123L2.08392 11.7441C2.07758 11.7255 2.05456 11.7237 2.03777 11.7237H1.99467L1.94182 11.9587H1.87793L2.00723 11.3786Z" fill="#323E48"/>
<path d="M2.43874 11.5639C2.44167 11.5511 2.43533 11.5436 2.423 11.5436H2.38283L2.39564 11.4899H2.46187C2.50298 11.4899 2.51613 11.5066 2.50709 11.5468L2.43204 11.8831C2.42793 11.8961 2.43486 11.9034 2.44731 11.9034H2.48771L2.47514 11.9586H2.4082C2.36745 11.9586 2.35359 11.9413 2.3631 11.9016L2.43874 11.5639ZM2.49581 11.3037H2.55782L2.53938 11.3835H2.47796L2.49581 11.3037Z" fill="#323E48"/>
<path d="M2.5684 12.0975C2.60998 12.0975 2.64615 12.0629 2.67328 12.0202L2.71661 11.9559L2.63675 11.5657C2.63323 11.549 2.62607 11.5434 2.60822 11.5434H2.59976L2.61233 11.4897H2.64133C2.68314 11.4897 2.6943 11.499 2.70252 11.5399L2.75784 11.8328C2.76277 11.8564 2.76382 11.8842 2.76382 11.8842H2.76559C2.76559 11.8842 2.7785 11.8564 2.79283 11.8328L2.97592 11.5399C3.00152 11.4989 3.0175 11.4897 3.06071 11.4897H3.09019L3.07833 11.5434H3.06811C3.05179 11.5434 3.04134 11.549 3.02983 11.5657L2.7152 12.056C2.67762 12.116 2.62019 12.1536 2.55783 12.1536C2.49124 12.1536 2.46423 12.1086 2.46423 12.1086L2.50592 12.0616C2.50592 12.0623 2.52812 12.0975 2.5684 12.0975Z" fill="#323E48"/>
<path d="M3.36559 11.478C3.49701 11.478 3.5414 11.5782 3.5165 11.695C3.51368 11.7056 3.50746 11.7266 3.50746 11.7266H3.14234C3.11814 11.8447 3.1872 11.9128 3.2855 11.9128C3.37217 11.9128 3.44099 11.8545 3.44099 11.8545L3.4606 11.9015C3.4606 11.9015 3.37769 11.9696 3.26847 11.9696C3.12824 11.9696 3.04345 11.8682 3.07587 11.7242C3.11086 11.5694 3.23758 11.478 3.36559 11.478ZM3.45461 11.6764C3.47176 11.5794 3.42267 11.5316 3.3522 11.5316C3.27434 11.5316 3.19448 11.5817 3.1576 11.6764H3.45461Z" fill="#323E48"/>
<path d="M3.7071 11.2939H3.77404L3.68513 11.454H3.6344L3.7071 11.2939Z" fill="#323E48"/>
<path d="M3.84725 11.5639C3.85113 11.5511 3.84431 11.5436 3.83198 11.5436H3.79182L3.80403 11.4897H3.87027C3.90973 11.4897 3.92453 11.5066 3.91584 11.5411L3.91149 11.5628C3.90667 11.5818 3.90245 11.5968 3.90245 11.5968H3.90468C3.93087 11.5528 4.00791 11.478 4.11877 11.478C4.23774 11.478 4.26416 11.5436 4.23844 11.6604L4.1883 11.8828C4.18454 11.8958 4.19112 11.9032 4.20474 11.9032H4.24408L4.23222 11.9583H4.1641C4.12453 11.9583 4.1109 11.9411 4.11948 11.9014L4.17021 11.677C4.18712 11.6023 4.19006 11.5385 4.09846 11.5385C4.01707 11.5385 3.93427 11.5929 3.89564 11.6689C3.88577 11.6899 3.87884 11.7116 3.87403 11.7332L3.824 11.9582H3.75952L3.84725 11.5639Z" fill="#323E48"/>
<path d="M4.42181 11.5639C4.42452 11.5511 4.4197 11.5436 4.40526 11.5436H4.3658L4.37836 11.4899H4.4453C4.48605 11.4899 4.49839 11.5066 4.49005 11.5468L4.41442 11.8831C4.41218 11.8961 4.41712 11.9034 4.43097 11.9034H4.47079L4.45846 11.9586H4.39116C4.35018 11.9586 4.33714 11.9413 4.34677 11.9016L4.42181 11.5639ZM4.47913 11.3037H4.54066L4.52317 11.3835H4.46033L4.47913 11.3037Z" fill="#323E48"/>
<path d="M4.64947 11.5639C4.65229 11.5511 4.64677 11.5436 4.6322 11.5436H4.59357L4.60484 11.4897H4.67225C4.71136 11.4897 4.72545 11.5066 4.71747 11.5411L4.71253 11.5628C4.70854 11.5818 4.70337 11.5968 4.70337 11.5968H4.70537C4.73191 11.5528 4.81001 11.478 4.92076 11.478C5.03843 11.478 5.06521 11.5436 5.03949 11.6604L4.98946 11.8828C4.98676 11.8958 4.99228 11.9032 5.00555 11.9032H5.04583L5.03291 11.9583H4.96585C4.9251 11.9583 4.91265 11.9411 4.92146 11.9014L4.97149 11.677C4.98805 11.6023 4.99146 11.5385 4.89973 11.5385C4.81847 11.5385 4.73637 11.5929 4.69727 11.6689C4.68752 11.6899 4.68071 11.7116 4.67589 11.7332L4.62492 11.9582H4.56104L4.64947 11.5639Z" fill="#323E48"/>
<path d="M5.82362 11.2912C6.01211 11.2912 6.12908 11.4384 6.08727 11.6263C6.0437 11.8187 5.85932 11.9695 5.67212 11.9695C5.48339 11.9695 5.3683 11.8186 5.41175 11.6263C5.45368 11.4383 5.63583 11.2912 5.82362 11.2912ZM5.68656 11.9076C5.83419 11.9076 5.98298 11.7845 6.01833 11.6262C6.05274 11.4717 5.95856 11.3523 5.80988 11.3523C5.66084 11.3523 5.51428 11.4717 5.47987 11.6262C5.44463 11.7846 5.53659 11.9076 5.68656 11.9076ZM5.75597 11.146H5.8114L5.7932 11.2263H5.73788L5.75597 11.146ZM5.89749 11.146H5.95292L5.93507 11.2263H5.87999L5.89749 11.146Z" fill="#323E48"/>
<path d="M6.40845 11.478C6.52331 11.478 6.54374 11.5658 6.54374 11.5658H6.54562C6.54562 11.5658 6.54738 11.5498 6.55137 11.5306L6.58531 11.3786C6.58872 11.365 6.5825 11.3576 6.56946 11.3576H6.52965L6.54233 11.3037H6.60833C6.64991 11.3037 6.66294 11.3191 6.65355 11.3601L6.53716 11.8831C6.53305 11.8961 6.5394 11.9034 6.55302 11.9034H6.59224L6.58026 11.9586H6.51426C6.47469 11.9586 6.46141 11.9406 6.46928 11.9065C6.47328 11.8885 6.47774 11.8768 6.47774 11.8768H6.47621C6.47621 11.8768 6.41573 11.9696 6.29183 11.9696C6.16452 11.9696 6.10686 11.8682 6.1408 11.7235C6.17333 11.575 6.28326 11.478 6.40845 11.478ZM6.50968 11.7235C6.53117 11.6283 6.50346 11.535 6.40046 11.535C6.31743 11.535 6.23252 11.6054 6.2061 11.7235C6.18038 11.8384 6.22454 11.9127 6.31379 11.9127C6.39318 11.9127 6.48044 11.8564 6.50968 11.7235Z" fill="#323E48"/>
<path d="M6.97756 11.478C7.10897 11.478 7.15513 11.5782 7.12882 11.695C7.12589 11.7056 7.11931 11.7266 7.11931 11.7266H6.75477C6.7307 11.8447 6.79952 11.9128 6.89746 11.9128C6.98519 11.9128 7.05284 11.8545 7.05284 11.8545L7.07386 11.9015C7.07386 11.9015 6.98954 11.9696 6.88161 11.9696C6.74138 11.9696 6.65565 11.8682 6.68854 11.7242C6.72248 11.5694 6.85049 11.478 6.97756 11.478ZM7.06646 11.6764C7.08466 11.5794 7.03452 11.5316 6.96499 11.5316C6.88713 11.5316 6.80633 11.5817 6.76945 11.6764H7.06646Z" fill="#323E48"/>
<path d="M7.28154 11.5639C7.28448 11.5511 7.27943 11.5436 7.26498 11.5436H7.22622L7.23797 11.4897H7.30362C7.34425 11.4897 7.35776 11.5066 7.35059 11.5411L7.34496 11.5628C7.34155 11.5818 7.33556 11.5968 7.33556 11.5968H7.33744C7.37537 11.533 7.46193 11.478 7.53674 11.478C7.62411 11.478 7.66005 11.5183 7.65664 11.5955H7.65911C7.69881 11.533 7.77972 11.478 7.85982 11.478C7.97561 11.478 8.00251 11.5436 7.97679 11.6604L7.92723 11.8829C7.92335 11.8959 7.92934 11.9034 7.94308 11.9034H7.98254L7.97056 11.9585H7.90268C7.8617 11.9585 7.84843 11.9412 7.85759 11.9015L7.90891 11.6765C7.92664 11.5999 7.92441 11.5356 7.83715 11.5356C7.76493 11.5356 7.69188 11.5998 7.65758 11.6678C7.64537 11.6895 7.63938 11.7116 7.6341 11.7359L7.58407 11.9583H7.51983L7.58277 11.6764C7.59816 11.6053 7.60403 11.5354 7.51395 11.5354C7.43715 11.5354 7.36457 11.6023 7.32922 11.6738C7.31865 11.6935 7.31172 11.7152 7.30691 11.7358L7.25746 11.9582H7.19287L7.28154 11.5639Z" fill="#323E48"/>
<path d="M8.36578 11.478C8.49661 11.478 8.5423 11.5782 8.51599 11.695C8.51317 11.7056 8.50753 11.7266 8.50753 11.7266H8.14194C8.11775 11.8447 8.18669 11.9128 8.28475 11.9128C8.3726 11.9128 8.44024 11.8545 8.44024 11.8545L8.46079 11.9015C8.46079 11.9015 8.37729 11.9696 8.26948 11.9696C8.12832 11.9696 8.04282 11.8682 8.07617 11.7242C8.11023 11.5694 8.23777 11.478 8.36578 11.478ZM8.45398 11.6764C8.47242 11.5794 8.42286 11.5316 8.35263 11.5316C8.27371 11.5316 8.19397 11.5817 8.1565 11.6764H8.45398Z" fill="#323E48"/>
<path d="M9.02831 11.6736L8.91556 11.3849C8.90711 11.3651 8.89666 11.3601 8.87669 11.3601H8.86072L8.87422 11.3037H8.89971C8.94504 11.3037 8.96007 11.3093 8.97816 11.3551L9.0498 11.54C9.06142 11.5751 9.07352 11.6141 9.07352 11.6141H9.07528C9.07528 11.6141 9.1037 11.5751 9.13201 11.54L9.28644 11.3551C9.32461 11.3093 9.34328 11.3037 9.38885 11.3037H9.41433L9.40059 11.3601H9.3858C9.367 11.3601 9.35268 11.365 9.33706 11.3849L9.09384 11.6736L9.0296 11.9587H8.9643L9.02831 11.6736Z" fill="#323E48"/>
<path d="M9.60164 11.478C9.74022 11.478 9.829 11.5831 9.79811 11.7209C9.76711 11.862 9.63029 11.9696 9.49253 11.9696C9.35384 11.9696 9.26505 11.862 9.29688 11.7209C9.32776 11.5832 9.46411 11.478 9.60164 11.478ZM9.50463 11.9128C9.60575 11.9128 9.7071 11.8305 9.73188 11.721C9.75595 11.6154 9.69054 11.5357 9.58907 11.5357C9.48748 11.5357 9.38719 11.6154 9.36347 11.721C9.33892 11.8305 9.40328 11.9128 9.50463 11.9128ZM9.54385 11.3037H9.59952L9.58132 11.3835H9.52553L9.54385 11.3037ZM9.68561 11.3037H9.74033L9.72389 11.3835H9.66646L9.68561 11.3037Z" fill="#323E48"/>
<path d="M9.94844 11.5639C9.95149 11.5511 9.94515 11.5436 9.93282 11.5436H9.8923L9.90499 11.4897H9.97158C10.0108 11.4897 10.0252 11.5066 10.0174 11.5411L10.0123 11.5628C10.008 11.5818 10.0027 11.5968 10.0027 11.5968H10.005C10.0315 11.5528 10.1099 11.478 10.2206 11.478C10.3383 11.478 10.3652 11.5436 10.3389 11.6604L10.2882 11.8828C10.2858 11.8958 10.2921 11.9032 10.3052 11.9032H10.3447L10.3322 11.9583H10.2659C10.2251 11.9583 10.2126 11.9411 10.2207 11.9014L10.2707 11.677C10.2871 11.6023 10.2914 11.5385 10.1988 11.5385C10.1176 11.5385 10.0359 11.5929 9.99671 11.6689C9.98649 11.6899 9.97956 11.7116 9.9751 11.7332L9.92437 11.9582H9.8606L9.94844 11.5639Z" fill="#323E48"/>
<path d="M10.5287 11.542H10.4661L10.4785 11.4901H10.5416L10.5704 11.3604H10.6337L10.6042 11.4901H10.7238L10.7119 11.542H10.5931L10.5392 11.7813C10.5148 11.8921 10.5824 11.905 10.6189 11.905C10.6313 11.905 10.6401 11.9038 10.6401 11.9038L10.6275 11.9606C10.6275 11.9606 10.6157 11.9619 10.5995 11.9619C10.545 11.9619 10.4386 11.9446 10.4735 11.7887L10.5287 11.542Z" fill="#323E48"/>
<path d="M11.0294 11.478C11.1608 11.478 11.2072 11.5782 11.181 11.695C11.1779 11.7056 11.171 11.7266 11.171 11.7266H10.8066C10.7823 11.8447 10.8504 11.9128 10.9487 11.9128C11.0359 11.9128 11.1046 11.8545 11.1046 11.8545L11.1247 11.9015C11.1247 11.9015 11.0414 11.9696 10.933 11.9696C10.7928 11.9696 10.7077 11.8682 10.7402 11.7242C10.7754 11.5694 10.9018 11.478 11.0294 11.478ZM11.1184 11.6764C11.1366 11.5794 11.0865 11.5316 11.0163 11.5316C10.9388 11.5316 10.8587 11.5817 10.8211 11.6764H11.1184Z" fill="#323E48"/>
<path d="M11.3337 11.5639C11.3356 11.5511 11.3299 11.5436 11.3168 11.5436H11.2774L11.2893 11.4897H11.355C11.3958 11.4897 11.4094 11.5066 11.402 11.5411L11.3963 11.5628C11.3924 11.5818 11.3875 11.5968 11.3875 11.5968H11.3893C11.4275 11.533 11.5138 11.478 11.5878 11.478C11.6761 11.478 11.7125 11.5183 11.7092 11.5955H11.7104C11.7506 11.533 11.8307 11.478 11.9115 11.478C12.0267 11.478 12.0555 11.5436 12.0293 11.6604L11.9785 11.8828C11.9755 11.8958 11.9817 11.9032 11.9947 11.9032H12.0342L12.0225 11.9583H11.9541C11.9145 11.9583 11.9009 11.9411 11.9109 11.9014L11.9609 11.6764C11.9784 11.5998 11.976 11.5354 11.8888 11.5354C11.8169 11.5354 11.7437 11.5997 11.7092 11.6677C11.6974 11.6894 11.6913 11.7115 11.6856 11.7358L11.636 11.9582H11.5716L11.6348 11.6763C11.6509 11.6052 11.656 11.5353 11.566 11.5353C11.4888 11.5353 11.4162 11.6021 11.3805 11.6737C11.3705 11.6934 11.3643 11.7151 11.3586 11.7356L11.3091 11.9581H11.2452L11.3337 11.5639Z" fill="#323E48"/>
<path d="M12.2127 11.5639C12.2158 11.5511 12.21 11.5436 12.1964 11.5436H12.1565L12.1696 11.4899H12.2365C12.2766 11.4899 12.2902 11.5066 12.2797 11.5468L12.2052 11.8831C12.2027 11.8961 12.2084 11.9034 12.222 11.9034H12.2608L12.2483 11.9586H12.1814C12.1406 11.9586 12.1275 11.9413 12.1367 11.9016L12.2127 11.5639ZM12.2697 11.3037H12.3316L12.3141 11.3835H12.2508L12.2697 11.3037Z" fill="#323E48"/>
<path d="M18.3311 4.91504C18.0518 4.91504 17.7441 5.06768 17.6218 5.34432L16.3178 8.29465L15.8481 5.34432C15.7934 5.0678 15.6039 4.91504 15.3032 4.91504H13.6516L15.0645 9.81609C15.0898 9.91016 15.0955 10.0144 15.0763 10.124C15.0017 10.533 14.6067 10.8652 14.1919 10.8652H13.2677C13.033 10.8652 12.8783 11.0087 12.8021 11.3337L12.5967 12.548H14.2252C15.0756 12.548 16.0735 12.1266 16.739 10.9607L20 4.91504H18.3311Z" fill="#323E48"/>
<path d="M2.29961 3.45226C2.78745 3.45226 3.02304 3.64434 2.93731 4.12686L2.79626 4.91339H3.91712L3.67037 6.29553H2.54952L2.24417 8.00744C2.13789 8.60281 2.73602 8.68273 3.07871 8.68273C3.14694 8.68273 3.20319 8.68018 3.24453 8.67867L2.97007 10.2197C2.88599 10.2282 2.79791 10.2401 2.61388 10.2401C1.76267 10.2401 0.154082 10.0152 0.470467 8.2422L0.81633 6.29542H0L0.245921 4.91328H1.05427L1.31522 3.45215H2.29961V3.45226Z" fill="#323E48"/>
<path d="M11.7155 4.97705L11.4275 6.58874C11.7829 6.76736 12.0256 7.1318 12.0256 7.55146C12.0256 8.10542 11.606 8.55906 11.0642 8.62413L10.7771 10.2357C10.8278 10.2388 10.8794 10.2405 10.9309 10.2405C12.4349 10.2405 13.6533 9.03625 13.6533 7.55146C13.6535 6.33727 12.8371 5.31087 11.7155 4.97705Z" fill="#00ADBB"/>
<path d="M10.4346 8.51419C10.0801 8.33626 9.8365 7.97124 9.8365 7.55124C9.8365 7.00063 10.2578 6.54386 10.7986 6.47961L11.0858 4.86873C11.0343 4.86583 10.9827 4.86328 10.9312 4.86328C9.42874 4.86328 8.20947 6.0683 8.20947 7.55124C8.20947 8.76577 9.0258 9.79356 10.1475 10.1267L10.4346 8.51419Z" fill="#00ADBB"/>
<path d="M18.4255 10.4347C18.4255 10.5921 18.3693 10.7261 18.2565 10.8375C18.1447 10.948 18.0091 11.0035 17.8496 11.0035C17.6909 11.0035 17.5553 10.948 17.4427 10.8375C17.3301 10.7261 17.2737 10.5921 17.2737 10.4347C17.2737 10.278 17.3301 10.144 17.4427 10.0327C17.5553 9.92226 17.6909 9.8667 17.8496 9.8667C18.0091 9.8667 18.1447 9.92226 18.2565 10.0327C18.3692 10.144 18.4255 10.278 18.4255 10.4347ZM18.3351 10.4347C18.3351 10.3007 18.2875 10.1866 18.1923 10.0924C18.0979 9.99754 17.9829 9.94975 17.8496 9.94975C17.7163 9.94975 17.6022 9.99754 17.5077 10.0924C17.4133 10.1866 17.3666 10.3007 17.3666 10.4347C17.3666 10.5695 17.4133 10.684 17.5077 10.7778C17.6022 10.8726 17.7163 10.9204 17.8496 10.9204C17.9829 10.9204 18.0979 10.8726 18.1923 10.7778C18.2874 10.684 18.3351 10.5695 18.3351 10.4347ZM18.0915 10.7458H17.9892L17.8449 10.4919H17.7498V10.7458H17.6625V10.1229H17.8767C17.9323 10.1229 17.979 10.1409 18.0179 10.177C18.056 10.2132 18.0758 10.2569 18.0758 10.3094C18.0758 10.3964 18.0306 10.4536 17.9402 10.481L18.0915 10.7458ZM17.9861 10.3094C17.9861 10.278 17.9749 10.2521 17.9527 10.231C17.9305 10.2099 17.902 10.1996 17.867 10.1996H17.7496V10.4174H17.867C17.9019 10.4174 17.9304 10.4076 17.9527 10.3871C17.9749 10.3665 17.9861 10.3408 17.9861 10.3094Z" fill="#323E48"/>
<g clip-path="url(#clip0_6641_25051)">
<path d="M28.8668 15.9649V14.903C28.8668 14.4968 28.6193 14.2309 28.1946 14.2309C27.9822 14.2309 27.7513 14.301 27.5925 14.5319C27.4688 14.3381 27.2915 14.2309 27.0255 14.2309C26.8482 14.2309 26.6709 14.2845 26.5307 14.4783V14.2659H26.1595V15.9649H26.5307V15.0267C26.5307 14.7257 26.6894 14.5834 26.9369 14.5834C27.1843 14.5834 27.308 14.7422 27.308 15.0267V15.9649H27.6791V15.0267C27.6791 14.7257 27.8565 14.5834 28.0853 14.5834C28.3327 14.5834 28.4565 14.7422 28.4565 15.0267V15.9649H28.8668ZM34.3719 14.2659H33.7699V13.7525H33.3987V14.2659H33.0626V14.602H33.3987V15.3814C33.3987 15.7711 33.5575 15.9999 33.9822 15.9999C34.141 15.9999 34.3183 15.9463 34.442 15.8762L34.3348 15.5566C34.2276 15.6267 34.1039 15.6453 34.0152 15.6453C33.8379 15.6453 33.7678 15.5381 33.7678 15.3628V14.602H34.3699V14.2659H34.3719ZM37.5224 14.2288C37.3101 14.2288 37.1678 14.336 37.0791 14.4762V14.2639H36.708V15.9628H37.0791V15.0061C37.0791 14.7236 37.2028 14.5628 37.4338 14.5628C37.5039 14.5628 37.5925 14.5814 37.6647 14.5979L37.7719 14.2432C37.6977 14.2288 37.5925 14.2288 37.5224 14.2288ZM32.7616 14.4061C32.5843 14.2824 32.3369 14.2288 32.0709 14.2288C31.6461 14.2288 31.3637 14.4412 31.3637 14.7773C31.3637 15.0597 31.576 15.2206 31.9472 15.2721L32.1245 15.2907C32.3183 15.3257 32.4255 15.3793 32.4255 15.468C32.4255 15.5917 32.2833 15.6803 32.0358 15.6803C31.7884 15.6803 31.5925 15.5917 31.4688 15.503L31.2915 15.7855C31.4853 15.9278 31.7513 15.9979 32.0173 15.9979C32.5121 15.9979 32.7967 15.7669 32.7967 15.4494C32.7967 15.1484 32.5657 14.9896 32.2132 14.936L32.0358 14.9175C31.8771 14.8989 31.7534 14.8639 31.7534 14.7587C31.7534 14.635 31.8771 14.5649 32.0729 14.5649C32.2853 14.5649 32.4977 14.6535 32.6049 14.7072L32.7616 14.4061ZM42.6358 14.2288C42.4235 14.2288 42.2812 14.336 42.1925 14.4762V14.2639H41.8214V15.9628H42.1925V15.0061C42.1925 14.7236 42.3162 14.5628 42.5472 14.5628C42.6173 14.5628 42.7059 14.5814 42.7781 14.5979L42.8853 14.2474C42.8132 14.2288 42.708 14.2288 42.6358 14.2288ZM37.8936 15.1154C37.8936 15.6288 38.2482 15.9999 38.7967 15.9999C39.0441 15.9999 39.2214 15.9463 39.3987 15.8061L39.2214 15.5051C39.0791 15.6123 38.9389 15.6639 38.7781 15.6639C38.4771 15.6639 38.2647 15.4515 38.2647 15.1154C38.2647 14.7958 38.4771 14.5834 38.7781 14.5669C38.9369 14.5669 39.0791 14.6206 39.2214 14.7257L39.3987 14.4247C39.2214 14.2824 39.0441 14.2309 38.7967 14.2309C38.2482 14.2288 37.8936 14.602 37.8936 15.1154ZM41.3266 15.1154V14.2659H40.9554V14.4783C40.8317 14.3195 40.6544 14.2309 40.4235 14.2309C39.9451 14.2309 39.574 14.602 39.574 15.1154C39.574 15.6288 39.9451 15.9999 40.4235 15.9999C40.6709 15.9999 40.8482 15.9113 40.9554 15.7525V15.9649H41.3266V15.1154ZM39.9637 15.1154C39.9637 14.8144 40.1575 14.5669 40.4771 14.5669C40.7781 14.5669 40.9905 14.7979 40.9905 15.1154C40.9905 15.4164 40.7781 15.6639 40.4771 15.6639C40.1595 15.6453 39.9637 15.4144 39.9637 15.1154ZM35.5224 14.2288C35.0276 14.2288 34.6729 14.5834 34.6729 15.1133C34.6729 15.6453 35.0276 15.9979 35.541 15.9979C35.7884 15.9979 36.0358 15.9278 36.2317 15.7669L36.0544 15.501C35.9121 15.6082 35.7348 15.6783 35.5595 15.6783C35.3286 15.6783 35.0998 15.5711 35.0461 15.2721H36.3018C36.3018 15.2185 36.3018 15.1834 36.3018 15.1298C36.3183 14.5834 35.9987 14.2288 35.5224 14.2288ZM35.5224 14.5484C35.7534 14.5484 35.9121 14.6907 35.9472 14.9546H35.0626C35.0977 14.7257 35.2565 14.5484 35.5224 14.5484ZM44.7431 15.1154V13.5938H44.3719V14.4783C44.2482 14.3195 44.0709 14.2309 43.84 14.2309C43.3616 14.2309 42.9905 14.602 42.9905 15.1154C42.9905 15.6288 43.3616 15.9999 43.84 15.9999C44.0874 15.9999 44.2647 15.9113 44.3719 15.7525V15.9649H44.7431V15.1154ZM43.3802 15.1154C43.3802 14.8144 43.574 14.5669 43.8936 14.5669C44.1946 14.5669 44.407 14.7979 44.407 15.1154C44.407 15.4164 44.1946 15.6639 43.8936 15.6639C43.574 15.6453 43.3802 15.4144 43.3802 15.1154ZM30.9554 15.1154V14.2659H30.5843V14.4783C30.4606 14.3195 30.2833 14.2309 30.0523 14.2309C29.574 14.2309 29.2028 14.602 29.2028 15.1154C29.2028 15.6288 29.574 15.9999 30.0523 15.9999C30.2998 15.9999 30.4771 15.9113 30.5843 15.7525V15.9649H30.9554V15.1154ZM29.576 15.1154C29.576 14.8144 29.7699 14.5669 30.0894 14.5669C30.3905 14.5669 30.6028 14.7979 30.6028 15.1154C30.6028 15.4164 30.3905 15.6639 30.0894 15.6639C29.7699 15.6453 29.576 15.4144 29.576 15.1154Z" fill="black"/>
<path d="M38.2131 1.36279H32.6378V11.3793H38.2131V1.36279Z" fill="#FF5A00"/>
<path d="M33.009 6.37113C33.009 4.33608 33.9657 2.5299 35.4337 1.36289C34.3533 0.513402 32.9904 0 31.5038 0C27.9822 0 25.1327 2.84948 25.1327 6.37113C25.1327 9.89278 27.9822 12.7423 31.5038 12.7423C32.9904 12.7423 34.3533 12.2289 35.4337 11.3794C33.9636 10.2289 33.009 8.40619 33.009 6.37113Z" fill="#EB001B"/>
<path d="M45.7347 6.37113C45.7347 9.89278 42.8853 12.7423 39.3636 12.7423C37.877 12.7423 36.5141 12.2289 35.4337 11.3794C36.9203 10.2103 37.8585 8.40619 37.8585 6.37113C37.8585 4.33608 36.9018 2.5299 35.4337 1.36289C36.5121 0.513402 37.875 0 39.3616 0C42.8853 0 45.7347 2.86804 45.7347 6.37113Z" fill="#F79E1B"/>
</g>
<path d="M66.4994 4C64.7953 4 63.2724 4.90869 63.2724 6.58755C63.2724 8.5129 65.9733 8.64588 65.9733 9.61312C65.9733 10.0204 65.5196 10.3849 64.7448 10.3849C63.6451 10.3849 62.8232 9.87554 62.8232 9.87554L62.4716 11.5697C62.4716 11.5697 63.4184 12 64.6754 12C66.5385 12 68.0045 11.0467 68.0045 9.33912C68.0045 7.30465 65.2924 7.17562 65.2924 6.27786C65.2924 5.95883 65.6649 5.60926 66.4375 5.60926C67.3092 5.60926 68.0205 5.97974 68.0205 5.97974L68.3647 4.34346C68.3647 4.34346 67.5908 4 66.4994 4ZM50.9086 4.12349L50.8673 4.37048C50.8673 4.37048 51.5842 4.50546 52.2299 4.77472C53.0613 5.08349 53.1205 5.26323 53.2606 5.82151L54.7863 11.8726H56.8317L59.9827 4.12349H57.942L55.9173 9.39219L55.0911 4.92619C55.0154 4.41506 54.6316 4.12349 54.1618 4.12349H50.9086ZM60.8032 4.12349L59.2024 11.8726H61.1483L62.7435 4.12349H60.8032ZM71.6563 4.12349C71.1871 4.12349 70.9385 4.38194 70.756 4.83357L67.9051 11.8726H69.9458L70.3406 10.6995H72.8267L73.0667 11.8726H74.8673L73.2965 4.12349H71.6563ZM71.9217 6.21708L72.5266 9.12494H70.9061L71.9217 6.21708Z" fill="#1434CB"/>
<path d="M80.6562 7.207H81.7949L82.5727 6.51945H83.394L83.9198 7.207L85.4163 7.32522L85.8954 6.51945L86.4616 7.17589H87.1803L87.8709 6.51945L88.0794 6.92078L88.6176 7.207L93.4958 7.32522L93.6452 6.09946H94.3638V7.14789L96.719 7.17589L97.1016 6.91145L99.0274 7.32522L99.9172 6.71234L100.938 6.48834L101.227 7.207L103.203 7.08567L103.343 6.21768L104.534 7.32522H105.586V3.52661H104.534L104.211 4.4257L103.203 3.40527L101.871 3.52661L101.725 4.4257L100.77 3.40527L97.7954 3.61683L97.0954 3.88438L96.719 3.40527L95.6083 3.5546L94.6936 3.52661L91.3709 3.5546L87.7216 3.40527L87.1212 4.78037L86.1909 3.40527L84.458 3.61683L84.4269 4.15504L83.5309 3.40527H82.1838L80.6562 7.207Z" fill="white"/>
<path d="M86.5531 12.4437H89.905L90.8116 11.9307L91.6407 12.5635C91.6407 12.5635 93.2504 12.4138 93.2986 12.4437C93.3465 12.4736 93.5562 11.4261 93.5562 11.4261L95.0527 11.2466L95.2975 12.4138L96.3413 12.4437L96.719 11.3663L97.4168 11.4261L97.7967 12.5632L104.001 12.4135L107.233 12.3538L107.741 11.5757L107.467 10.5092V8.88215L91.581 8.70264L90.5935 9.39889L89.7557 8.70264L86.5534 8.82241V12.4437H86.5531Z" fill="white"/>
<path d="M82.4171 5.53642H83.394L82.9056 4.29199L82.4171 5.53642Z" fill="#306FC5"/>
<path d="M87.6127 9.71094V10.2865H89.2553V10.9087H87.6127V11.5745H89.4358L90.2789 10.6411L89.4793 9.71094H87.6127Z" fill="#306FC5"/>
<path d="M100.449 4.29199L99.9174 5.53642H100.938L100.449 4.29199Z" fill="#306FC5"/>
<path d="M92.3666 11.9292V9.3999L91.2124 10.6412L92.3666 11.9292Z" fill="#306FC5"/>
<path d="M94.5424 10.1097C94.4979 9.84311 94.3202 9.70996 94.0536 9.70996H93.1212V10.5095H94.0984C94.3644 10.5095 94.5424 10.3764 94.5424 10.1097Z" fill="#306FC5"/>
<path d="M97.651 10.421C97.74 10.3765 97.7845 10.243 97.7845 10.1102C97.8289 9.93253 97.74 9.84355 97.651 9.79937C97.5623 9.75488 97.4289 9.75488 97.296 9.75488H96.4075V10.4658H97.296C97.4289 10.4655 97.5623 10.4655 97.651 10.421Z" fill="#306FC5"/>
<path d="M104.047 3.13672V3.66964L103.781 3.13672H101.693V3.66964L101.427 3.13672H98.5842C98.0957 3.13672 97.6956 3.2257 97.3406 3.40334V3.13672H95.3421V3.18121V3.40334C95.1199 3.2257 94.8536 3.13672 94.4983 3.13672H87.3471L86.8583 4.24706L86.3699 3.13672H84.7711H84.1047V3.66964L83.8826 3.13672H83.8381H81.9285L81.0399 5.22424L80.0185 7.48941L79.9999 7.5339H80.0185H82.2838H82.3121L82.3282 7.48941L82.5949 6.82333H83.1723L83.4389 7.5339H86.0146V7.48941V7.00097L86.2367 7.5339H87.5247L87.7466 7.00097V7.48941V7.5339H88.7683H93.8761H93.9206V6.37907H94.0096C94.0982 6.37907 94.0982 6.37907 94.0982 6.51223V7.48941H97.2961V7.22279C97.5628 7.35626 97.9622 7.48941 98.4952 7.48941H99.8277L100.094 6.77884H100.716L100.983 7.48941H103.559V7.04546V6.82333L103.958 7.48941H104.047H104.091H106.046V3.13672H104.047ZM88.9904 6.86782H88.5461H88.2798V6.60151V4.42501L88.2353 4.52674V4.5255L87.2021 6.86782H87.1695H86.9318H86.5475L85.4817 4.42501V6.86782H83.9715L83.6607 6.20174H82.1506L81.8395 6.86782H81.0586L82.3724 3.75862H83.4828L84.7263 6.73436V3.75862H84.9926H85.9029L85.9238 3.80311H85.9253L86.4856 5.02265L86.8879 5.93637L86.9022 5.89032L87.7904 3.75862H88.9898L88.9904 6.86782ZM92.0552 4.42501H90.3229V5.00242H92.0107V5.62433H90.3229V6.24623H92.0552V6.91231H89.5678V3.75862H92.0552V4.42501ZM95.2232 5.57019C95.2245 5.57113 95.2257 5.57206 95.2273 5.573C95.2441 5.59073 95.2584 5.60846 95.2708 5.62557C95.3557 5.73695 95.4248 5.90308 95.4282 6.14636C95.4285 6.15072 95.4285 6.15476 95.4289 6.15881C95.4289 6.1613 95.4292 6.16348 95.4292 6.16596C95.4292 6.16752 95.4292 6.16845 95.4292 6.1697C95.4301 6.19427 95.4307 6.21916 95.4307 6.24623V6.86813H94.7646V6.51254C94.7646 6.33489 94.7646 6.06828 94.6312 5.89064C94.5892 5.84864 94.5469 5.82095 94.5005 5.80135C94.4339 5.7581 94.3079 5.75748 94.0985 5.75748H93.2987V6.86782H92.5439V3.75862H94.2317C94.6312 3.75862 94.8978 3.75862 95.1199 3.89177C95.3377 4.02244 95.469 4.23928 95.474 4.58243C95.4637 5.055 95.1604 5.31446 94.9423 5.40189C94.9423 5.40189 95.0904 5.43175 95.2232 5.57019ZM96.7187 6.86782H95.9637V3.75862H96.7187V6.86782ZM105.38 6.86782H104.403L102.981 4.51368V6.46805L102.977 6.46338V6.86969H102.226V6.86782H101.471L101.205 6.20174H99.65L99.3834 6.91231H98.5397C98.1847 6.91231 97.7401 6.82364 97.4738 6.55702C97.2072 6.29041 97.0743 5.93512 97.0743 5.35802C97.0743 4.91376 97.163 4.4695 97.4738 4.11422C97.6956 3.8476 98.0957 3.75893 98.5842 3.75893H99.295V4.42501H98.5842C98.3175 4.42501 98.1847 4.46919 98.0067 4.60265C97.8739 4.73581 97.7849 5.00211 97.7849 5.31322C97.7849 5.6685 97.8294 5.89063 98.0067 6.06828C98.1402 6.20174 98.3178 6.24623 98.54 6.24623H98.8508L99.8722 3.80342H100.316H100.983L102.226 6.77916V6.62734V5.62433V5.53566V3.80342H103.337L104.624 5.97961V3.80342H105.38V6.86782Z" fill="white"/>
<path d="M94.5898 5.05355C94.6028 5.03955 94.6143 5.024 94.6243 5.00595C94.6644 4.94218 94.7108 4.82769 94.6859 4.67089C94.685 4.65658 94.6822 4.6432 94.6791 4.63045C94.6781 4.62702 94.6784 4.6236 94.6775 4.62018H94.6772C94.6551 4.54396 94.5988 4.49729 94.5425 4.46898C94.4535 4.42481 94.3203 4.4248 94.1869 4.4248H93.2983V5.13568H94.1869C94.32 5.13568 94.4535 5.13568 94.5425 5.0912C94.5559 5.08435 94.5677 5.07533 94.5792 5.06475V5.06537C94.5792 5.06537 94.5839 5.0604 94.5898 5.05355Z" fill="#306FC5"/>
<path d="M108 11.3092C108 10.9984 107.911 10.6873 107.778 10.4652V8.46696H107.776V8.3335C107.776 8.3335 105.914 8.3335 105.637 8.3335C105.36 8.3335 105.024 8.5998 105.024 8.5998V8.3335H102.981C102.67 8.3335 102.27 8.42247 102.092 8.5998V8.3335H98.4509V8.46696V8.5998C98.1846 8.37798 97.6955 8.3335 97.4737 8.3335H95.0753V8.46696V8.5998C94.8532 8.37798 94.3199 8.3335 94.0533 8.3335H91.389L90.767 8.99989L90.1896 8.3335H90.0036H89.7009H86.1921V8.46696V8.81789V12.8193H90.1006L90.7428 12.1769L91.2994 12.8193H91.3438H93.596H93.698H93.7425H93.7867V12.3751V11.7977H94.0088C94.3193 11.7977 94.7194 11.7977 95.0302 11.6642V12.7745V12.8635H97.0288V12.7745V11.7087H97.1175C97.2509 11.7087 97.2509 11.7087 97.2509 11.8418V12.7745V12.8635H103.291C103.691 12.8635 104.091 12.7745 104.313 12.5969V12.7745V12.8635H106.223C106.622 12.8635 107.022 12.819 107.289 12.6414C107.697 12.3959 107.955 11.9616 107.994 11.4439C107.995 11.4287 107.998 11.4131 107.999 11.3979L107.996 11.3954C107.999 11.3668 108 11.3382 108 11.3092ZM94.0094 11.0429H93.1209V11.1758V11.4424V11.709V12.1974H91.6612L90.8115 11.2203L90.8087 11.2234L90.7674 11.1755L89.7901 12.1971H86.9475V9.08824H89.8343L90.623 9.95218L90.7888 10.1329L90.8112 10.1096L91.7439 9.08824H94.0978C94.5545 9.08824 95.0663 9.20086 95.2601 9.66566C95.2835 9.75774 95.2968 9.8601 95.2968 9.97614C95.2971 10.865 94.6752 11.0429 94.0094 11.0429ZM98.4509 10.9984C98.5396 11.1313 98.584 11.3092 98.584 11.5758V12.1974H97.829V11.798C97.829 11.62 97.829 11.3092 97.6955 11.1758C97.6068 11.0429 97.4289 11.0429 97.1626 11.0429H96.3633V12.1974H95.6083V9.04406H97.296C97.651 9.04406 97.9621 9.04406 98.1846 9.17722C98.4064 9.31068 98.584 9.53281 98.584 9.8881C98.584 10.3765 98.2732 10.6432 98.0511 10.7321C98.2732 10.8205 98.4064 10.9095 98.4509 10.9984ZM101.516 9.71014H99.7834V10.2876H101.471V10.9095H99.7834V11.5314H101.516V12.1974H99.0283V9.04406H101.516V9.71014ZM103.381 12.1974H101.959V11.5314H103.381C103.514 11.5314 103.603 11.5314 103.692 11.4424C103.736 11.3979 103.781 11.3092 103.781 11.2203C103.781 11.1313 103.736 11.0429 103.692 10.9984C103.647 10.9539 103.558 10.9095 103.425 10.9095C102.715 10.865 101.871 10.9095 101.871 9.93258C101.871 9.48832 102.137 8.99989 102.936 8.99989H104.402V9.75494H103.025C102.892 9.75494 102.803 9.75494 102.714 9.79943C102.626 9.84392 102.626 9.9329 102.626 10.0216C102.626 10.1547 102.714 10.1992 102.803 10.2434C102.892 10.2879 102.981 10.2879 103.07 10.2879H103.469C103.869 10.2879 104.136 10.3768 104.313 10.5545C104.446 10.6876 104.535 10.9098 104.535 11.2206C104.536 11.8863 104.136 12.1974 103.381 12.1974ZM107.201 11.8863C107.023 12.0643 106.712 12.1974 106.268 12.1974H104.847V11.5314H106.268C106.401 11.5314 106.49 11.5314 106.579 11.4424C106.623 11.3979 106.668 11.3092 106.668 11.2203C106.668 11.1313 106.623 11.0429 106.579 10.9984C106.535 10.9539 106.446 10.9095 106.312 10.9095C105.602 10.865 104.758 10.9095 104.758 9.93258C104.758 9.51041 104.999 9.129 105.595 9.01575C105.666 9.0058 105.741 8.99958 105.824 8.99958H107.29V9.75463H106.312H105.957H105.913C105.779 9.75463 105.69 9.75463 105.602 9.79912C105.557 9.84361 105.513 9.93258 105.513 10.0212C105.513 10.1544 105.557 10.1989 105.69 10.2431C105.779 10.2876 105.868 10.2876 105.957 10.2876H106.001H106.357C106.551 10.2876 106.698 10.3115 106.832 10.3588C106.955 10.4033 107.363 10.5856 107.454 11.061C107.461 11.1107 107.467 11.1627 107.467 11.2203C107.467 11.4869 107.378 11.709 107.201 11.8863Z" fill="white"/>
<path d="M104.047 3.13672V3.66964L103.781 3.13672H101.693V3.66964L101.427 3.13672H98.5842C98.0957 3.13672 97.6956 3.2257 97.3406 3.40334V3.13672H95.3421V3.18121V3.40334C95.1199 3.2257 94.8536 3.13672 94.4983 3.13672H87.3471L86.8583 4.24706L86.3699 3.13672H84.7711H84.1047V3.66964L83.8826 3.13672H83.8381H81.9285L81.0399 5.22424L80.0185 7.48941L79.9999 7.5339H80.0185H82.2838H82.3121L82.3282 7.48941L82.5949 6.82333H83.1723L83.4389 7.5339H86.0146V7.48941V7.00097L86.2367 7.5339H87.5247L87.7466 7.00097V7.48941V7.5339H88.7683H93.8761H93.9206V6.37907H94.0096C94.0982 6.37907 94.0982 6.37907 94.0982 6.51223V7.48941H97.2961V7.22279C97.5628 7.35626 97.9622 7.48941 98.4952 7.48941H99.8277L100.094 6.77884H100.716L100.983 7.48941H103.559V7.04546V6.82333L103.958 7.48941H104.047H104.091H106.046V3.13672H104.047ZM88.5461 6.86782H88.2798V6.60151V4.42501L88.2353 4.52674V4.5255L87.2021 6.86782H87.1695H86.9318H86.5475L85.4817 4.42501V6.86782H83.9715L83.6607 6.20174H82.1506L81.8395 6.86782H81.0586L82.3724 3.75862H83.4828L84.7263 6.73436V3.75862H84.9926H85.9029L85.9238 3.80311H85.9253L86.4856 5.02265L86.8879 5.93637L86.9022 5.89032L87.7904 3.75862H88.9898V6.86751L88.5461 6.86782ZM92.0552 4.42501H90.3229V5.00242H92.0107V5.62433H90.3229V6.24623H92.0552V6.91231H89.5678V3.75862H92.0552V4.42501ZM95.2232 5.57019C95.2245 5.57113 95.2257 5.57206 95.2273 5.573C95.2441 5.59073 95.2584 5.60846 95.2708 5.62557C95.3557 5.73695 95.4248 5.90308 95.4282 6.14636C95.4285 6.15072 95.4285 6.15476 95.4289 6.15881C95.4289 6.1613 95.4292 6.16348 95.4292 6.16596C95.4292 6.16752 95.4292 6.16845 95.4292 6.1697C95.4301 6.19427 95.4307 6.21916 95.4307 6.24623V6.86813H94.7646V6.51254C94.7646 6.33489 94.7646 6.06828 94.6312 5.89064C94.5892 5.84864 94.5469 5.82095 94.5005 5.80135C94.4339 5.7581 94.3079 5.75748 94.0985 5.75748H93.2987V6.86782H92.5439V3.75862H94.2317C94.6312 3.75862 94.8978 3.75862 95.1199 3.89177C95.3377 4.02244 95.469 4.23928 95.474 4.58243C95.4637 5.055 95.1604 5.31446 94.9423 5.40189C94.942 5.4022 95.0904 5.43175 95.2232 5.57019ZM96.7187 6.86782H95.9637V3.75862H96.7187V6.86782ZM104.624 3.80342H105.379V6.86782H104.402L102.981 4.51368V6.46805L102.976 6.46338V6.86969H102.226V6.86782H101.471L101.204 6.20174H99.6497L99.3831 6.91231H98.5394C98.1844 6.91231 97.7398 6.82364 97.4735 6.55702C97.2069 6.29041 97.074 5.93512 97.074 5.35802C97.074 4.91376 97.1627 4.4695 97.4735 4.11422C97.6953 3.8476 98.0954 3.75893 98.5838 3.75893H99.2947V4.42501H98.5838C98.3172 4.42501 98.1844 4.46919 98.0064 4.60265C97.8736 4.73581 97.7846 5.00211 97.7846 5.31322C97.7846 5.6685 97.8291 5.89063 98.0064 6.06828C98.1399 6.20174 98.3175 6.24623 98.5397 6.24623H98.8505L99.8718 3.80342H100.316H100.982L102.226 6.77916V6.62734V5.62433V5.53566V3.80342H103.336L104.624 5.97961V3.80342Z" fill="#306FC5"/>
<path d="M107.778 10.4655V8.46696H107.776V8.3335C107.776 8.3335 105.914 8.3335 105.637 8.3335C105.36 8.3335 105.024 8.5998 105.024 8.5998V8.3335H102.981C102.67 8.3335 102.27 8.42247 102.092 8.5998V8.3335H98.4509V8.46696V8.5998C98.1846 8.37798 97.6955 8.3335 97.4737 8.3335H95.0753V8.46696V8.5998C94.8532 8.37798 94.3199 8.3335 94.0533 8.3335H91.389L90.767 8.99989L90.1896 8.3335H90.0036H89.7009H86.1921V8.46696V8.81789V12.8193H90.1006L90.7428 12.1769L91.2994 12.8193H91.3438H93.596H93.698H93.7425H93.7867V12.3751V11.7977H94.0088C94.3193 11.7977 94.7194 11.7977 95.0302 11.6642V12.7745V12.8635H97.0288V12.7745V11.7087H97.1175C97.2509 11.7087 97.2509 11.7087 97.2509 11.8418V12.7745V12.8635H103.291C103.691 12.8635 104.091 12.7745 104.313 12.5969V12.7745V12.8635H106.223C106.622 12.8635 107.022 12.819 107.289 12.6414C107.697 12.3959 107.955 11.9616 107.994 11.4439C107.995 11.4287 107.998 11.4131 107.999 11.3979L107.996 11.3954C107.999 11.3668 108 11.3382 108 11.3092C108 10.9984 107.911 10.6873 107.778 10.4655ZM94.0094 11.0429H93.1209V11.1758V11.4424V11.709V12.1974H91.6612L90.8115 11.2203L90.8087 11.2234L90.7674 11.1755L89.7901 12.1971H86.9475V9.08824H89.8343L90.623 9.95218L90.7888 10.1329L90.8112 10.1096L91.7439 9.08824H94.0978C94.5545 9.08824 95.0663 9.20086 95.2601 9.66566C95.2835 9.75774 95.2968 9.8601 95.2968 9.97614C95.2971 10.865 94.6752 11.0429 94.0094 11.0429ZM98.4509 10.9984C98.5396 11.1313 98.584 11.3092 98.584 11.5758V12.1974H97.829V11.798C97.829 11.62 97.829 11.3092 97.6955 11.1758C97.6068 11.0429 97.4289 11.0429 97.1626 11.0429H96.3633V12.1974H95.6083V9.04406H97.296C97.651 9.04406 97.9621 9.04406 98.1846 9.17722C98.4064 9.31068 98.584 9.53281 98.584 9.8881C98.584 10.3765 98.2732 10.6432 98.0511 10.7321C98.2732 10.8205 98.4064 10.9095 98.4509 10.9984ZM101.516 9.71014H99.7834V10.2876H101.471V10.9095H99.7834V11.5314H101.516V12.1974H99.0283V9.04406H101.516V9.71014ZM103.381 12.1974H101.959V11.5314H103.381C103.514 11.5314 103.603 11.5314 103.692 11.4424C103.736 11.3979 103.781 11.3092 103.781 11.2203C103.781 11.1313 103.736 11.0429 103.692 10.9984C103.647 10.9539 103.558 10.9095 103.425 10.9095C102.715 10.865 101.871 10.9095 101.871 9.93258C101.871 9.48832 102.137 8.99989 102.936 8.99989H104.402V9.75494H103.025C102.892 9.75494 102.803 9.75494 102.714 9.79943C102.626 9.84392 102.626 9.9329 102.626 10.0216C102.626 10.1547 102.714 10.1992 102.803 10.2434C102.892 10.2879 102.981 10.2879 103.07 10.2879H103.469C103.869 10.2879 104.136 10.3768 104.313 10.5545C104.446 10.6876 104.535 10.9098 104.535 11.2206C104.536 11.8863 104.136 12.1974 103.381 12.1974ZM107.201 11.8863C107.023 12.0643 106.712 12.1974 106.268 12.1974H104.847V11.5314H106.268C106.401 11.5314 106.49 11.5314 106.579 11.4424C106.623 11.3979 106.668 11.3092 106.668 11.2203C106.668 11.1313 106.623 11.0429 106.579 10.9984C106.535 10.9539 106.446 10.9095 106.312 10.9095C105.602 10.865 104.758 10.9095 104.758 9.93258C104.758 9.51041 104.999 9.129 105.595 9.01575C105.666 9.0058 105.741 8.99958 105.824 8.99958H107.29V9.75463H106.313H105.957H105.913C105.78 9.75463 105.691 9.75463 105.602 9.79912C105.557 9.84361 105.513 9.93258 105.513 10.0212C105.513 10.1544 105.557 10.1989 105.691 10.2431C105.779 10.2876 105.868 10.2876 105.957 10.2876H106.002H106.357C106.551 10.2876 106.698 10.3115 106.833 10.3588C106.955 10.4033 107.363 10.5856 107.454 11.061C107.462 11.1107 107.468 11.1627 107.468 11.2203C107.467 11.4869 107.378 11.709 107.201 11.8863Z" fill="#306FC5"/>
<defs>
<clipPath id="clip0_6641_25051">
<rect width="20.6021" height="16" fill="white" transform="translate(25.1327)"/>
</clipPath>
</defs>
</svg>
