<svg viewBox="0 0 1274 246.667" xmlns="http://www.w3.org/2000/svg" width="2500" height="484"><g fill="#232527"><path d="M1215.95 184.563c1.41 0 3.065-.115 3.065-1.94 0-1.67-1.555-1.87-2.84-1.87h-2.164v3.81zm-4.44-5.951h4.88c2.703 0 5.243.87 5.243 4.026a3.602 3.602 0 0 1-3.257 3.811l3.734 6.213h-3.017l-3.258-5.951h-1.824v5.951h-2.502z"/><path d="M1216.206 174.832a10.894 10.894 0 1 0 10.894 10.894 10.909 10.909 0 0 0-10.894-10.894m0 23.974a13.08 13.08 0 1 1 13.08-13.08 13.094 13.094 0 0 1-13.08 13.08M580.58 64.159H370.866s-42.214-1.047-42.214 42.56c0 0-1.864 44.962 42.352 44.962h40.69s6.28-.324 6.28 4.342c0 0 1.556 6.729-5.981 6.729h-79.738a1.472 1.472 0 0 0-1.647 1.724v32.929s.115 1.67 1.532 1.67h85.835s39.396 3.542 41.136-41.158c0 0 2.348-44.985-41.136-44.985H376.41s-5.405.716-5.405-6.39c0 0-.577-6.06 5.405-6.06h96.621a2.127 2.127 0 0 1 2.04 2.118v93.989s-.068 2.032 1.826 2.148h36.223a2.133 2.133 0 0 0 1.54-2.071v-93.689s-.216-2.495 1.755-2.495h35.323s9.24.077 14.459-7.714zM981.465 196.804v-29.033c0-2.201-1.818-1.94-1.818-1.94h-51.66s-5.281.347-5.281-7.29V66.02c0-2.286-1.786-2.055-1.786-2.055H886.46c-1.925 0-1.817 2.24-1.817 2.24v110.35s.762 22.52 25.492 22.52h69.298a2.166 2.166 0 0 0 2.033-2.272M1168.78 122.355l35.877-56.695a3.868 3.868 0 0 1 2.995-1.724h38.549a.878.878 0 0 1 .608 1.424l-55.148 85.304c-5.443 7.299-5.034 14.267-5.034 14.267v32.158a1.82 1.82 0 0 1-1.857 2.002h-34.16a1.863 1.863 0 0 1-1.901-2.002v-33.213a22.02 22.02 0 0 0-3.58-12.134l-34.623-53.33a1.66 1.66 0 0 0-1.346-.793h-72.224c-1.74 0-1.717 1.847-1.717 1.847v14.059s-.062 1.909 1.655 1.909h61.606s1.88-.077 1.88 2.318v27.43s.122 2.287-1.948 2.287h-61.053c-1.81 0-1.84 2.08-1.84 2.08v13.642s.23 2.079 1.786 2.079h67.012a2.088 2.088 0 0 1 1.947 2.363l.085 29.125s.07 2.333-2.11 2.333h-93.95c-16.437-.377-16.869-18.54-16.869-18.54V66.315s-.068-2.378 1.787-2.378h134.97a2.105 2.105 0 0 1 1.656 1.116l35.299 57.227s.617 1.093 1.648.076M728.246 197.043s-.055 2.002 1.754 2.033h33.946a1.871 1.871 0 0 0 1.824-2.033v-74.056s-.039-.709.455-.832c0 0 .407-.285.984.331l37.772 57.835c14.259 20.102 31.68 18.6 31.68 18.6h31.597V66.432c0-2.565-2.078-2.472-2.078-2.472h-34.022c-1.847 0-1.74 2.471-1.74 2.471v76.751c-.092 1.132-.662 1.24-.662 1.24-.624.169-1.078-.585-1.078-.585l-40.85-63.455a34.23 34.23 0 0 0-27.879-16.376h-31.703zM597.686 146.877c12.618-25.276 24.86-49.936 24.86-49.936s12.21 24.66 24.829 49.936zm56.957-67.19c-8.57-12.633-20.195-15.92-32.097-15.582-11.95-.339-22.767 2.387-32.144 15.583-21.503 40.82-61.923 119.388-61.923 119.388h42.868c1.648-3.118 5.582-10.817 10.571-20.734h42.567c6.907 0 13.343-2.24 17.785-10.994 2.472-4.82 5.574-10.94 7.723-15.228 10.524 21.072 20.748 41.413 23.705 46.956 19.678-.131 16.838-.131 42.868 0 0 0-41.182-81.763-61.923-119.388M175.229 217.692l-11.125-3.388-8.962 13.412h43.045l7.329-34.822-35.762-9.185zM51.383 160.111l-7.823 59.552-9.623-4.62L27 227.716h39.673l15.914-41.983zM261.764 51.863L153.871 65.13a11.33 11.33 0 0 0-9.462 7.799s73.533-4.612 91.74-5.528c17.046-.854 23.166-4.334 25.615-15.537M139.89 86.432l84.103-.909c10.895.316 15.63 0 19.817-9.608L142.438 79.55zM51.706 21.8v20.394h38.849V21.8a1.441 1.441 0 0 0 1.117-1.393 1.463 1.463 0 1 0-2.926 0 1.444 1.444 0 0 0 .77 1.27h-.008l-3.419 6.036a3.011 3.011 0 0 1-5.342-.13l-2.564-5.944a1.44 1.44 0 0 0 .723-1.232 1.463 1.463 0 1 0-2.148 1.27l-2.694 5.928a3.259 3.259 0 0 1-2.872 1.795h-.123a3.267 3.267 0 0 1-2.872-1.795l-2.694-5.928a1.472 1.472 0 1 0-1.425-.038l-2.563 5.943a3.012 3.012 0 0 1-5.344.131l-3.418-6.036h-.008a1.444 1.444 0 0 0 .77-1.27 1.463 1.463 0 1 0-1.809 1.393"/><path d="M80.292 86.802l-.285.2a2.695 2.695 0 0 1-3.595-.508l-4.32-6.12a.73.73 0 0 1 .724-.732 3.353 3.353 0 0 0 3.357-3.35v-3.387H66.08v3.388a3.351 3.351 0 0 0 3.349 3.349.731.731 0 0 1 .732.731l-4.32 6.12a2.696 2.696 0 0 1-3.595.51l-.285-.201a4.1 4.1 0 0 1-1.724-3.757l1.093-11.226a5.278 5.278 0 0 1 .23-1.554 3.735 3.735 0 0 1 1.571-1.987c2.556-1.701 7.984-6.167 7.984-6.167l.008.008.015-.008s5.45 4.481 8 6.182a3.695 3.695 0 0 1 1.555 1.964 5.37 5.37 0 0 1 .23 1.562l1.094 11.226a4.1 4.1 0 0 1-1.725 3.757m61.138-39.019a19.797 19.797 0 0 0-14.536 11.295l-15.013 30.819-7.075-16.768 7.399-7.214V50.632l-6.26-1.601-12.449 3.072-10.57-4.874-11.618 1.332-11.41-1.332-10.57 4.874-12.45-3.072-6.26 1.601v15.283l7.4 7.214-4.466 25.267 12.58 46.01 48.727 41.312-1.263 31.828-10.132-3.242-8.345 13.42h42.537l19.386-60.237 78.59 19.617 15.968 30.595-9.454-3.117-7.33 13.142h36.64l7.822-10.017-7.268-37.416.039-49.82a9.182 9.182 0 0 0 9.177-9.185v-2.018h-9.17v-.007l-18.624-14.975A47.192 47.192 0 0 0 203.63 93.87l-66.58-.346-13.874 14.413 16.121-41.89a12.86 12.86 0 0 1 10.124-7.792c13.658-1.863 36.778-7.437 101.688-15.167 17.554-2.094 23.174-14.004 23.328-21.665z"/></g><path d="M0 0h1274v246.667H0z" fill="none"/></svg>